<svg width="865" height="770" viewBox="0 0 865 770" fill="none" xmlns="http://www.w3.org/2000/svg">
<path fill-rule="evenodd" clip-rule="evenodd" d="M164.002 425.076H338.315V214.582L302.838 179H164.002V425.076Z" fill="url(#paint0_linear_6326_178)"/>
<path fill-rule="evenodd" clip-rule="evenodd" d="M302.889 214.529L320.555 196.78L338.315 214.529V250.117L302.889 214.529Z" fill="black" fill-opacity="0.1"/>
<path fill-rule="evenodd" clip-rule="evenodd" d="M338.313 214.558H302.887V179L338.313 214.558Z" fill="#0080CD"/>
<g clip-path="url(#clip0_6326_178)">
<path d="M302 250.109C302 247.298 300.012 243.85 297.583 242.445L255.417 218.054C252.988 216.649 249.012 216.649 246.583 218.054L204.417 242.445C201.987 243.85 200 247.299 200 250.109V298.891C200 301.701 201.988 305.15 204.417 306.555L246.583 330.946C249.012 332.351 252.988 332.351 255.417 330.946L297.583 306.555C298.798 305.852 299.902 304.639 300.702 303.25C301.503 301.861 302 300.296 302 298.891V250.109Z" fill="#0080CD"/>
<path d="M255.416 330.946L297.583 306.555C298.797 305.852 299.901 304.639 300.702 303.25L250.999 274.5L201.297 303.25C202.097 304.639 203.202 305.853 204.416 306.555L246.583 330.946C249.012 332.351 252.987 332.351 255.416 330.946Z" fill="#00549E"/>
<path d="M251 308.564C232.252 308.564 217 293.283 217 274.5C217 255.717 232.252 240.436 251 240.436C263.097 240.436 274.38 246.958 280.444 257.457L265.729 265.988C262.694 260.733 257.05 257.468 251 257.468C241.626 257.468 234 265.108 234 274.5C234 283.891 241.626 291.532 251 291.532C257.051 291.532 262.695 288.267 265.73 283.011L280.445 291.541C274.381 302.042 263.098 308.564 251 308.564Z" fill="white"/>
<path d="M284.999 272.608H281.221V268.823H277.444V272.608H273.666V276.392H277.444V280.177H281.221V276.392H284.999V272.608Z" fill="white"/>
<path d="M299.167 272.608H295.389V268.823H291.612V272.608H287.834V276.392H291.612V280.177H295.389V276.392H299.167V272.608Z" fill="white"/>
</g>
<mask id="mask0_6326_178" style="mask-type:alpha" maskUnits="userSpaceOnUse" x="30" y="20" width="805" height="710">
<path d="M522.239 20L483.785 92.0306L396.654 85.1596L450.563 154.098L415.029 220.518L323.639 79.4338L353.819 30.3064L522.239 20Z" fill="#89D3DF"/>
<path fill-rule="evenodd" clip-rule="evenodd" d="M834.866 403.401L834.865 403.401L762.216 553.301L702.831 477.148L739.458 429.282L678.372 445.772L702.831 477.148L762.216 553.301L637.117 563.379L578.462 472.797L346.032 535.781L255.86 728.51L142.565 729.999L142.564 730L30 621.324L74.0522 484.02L294.8 445.428L294.802 445.427L483.788 92.0304L522.242 20L551.205 97.2982L496.807 213.418L632.128 386.566L632.129 386.567L793.492 358.51L834.865 403.4L834.866 403.401ZM151.691 588.344L229.573 567.273L190.39 640.562L190.389 640.563L151.691 588.344ZM460.665 290.945L396.657 427.677L533.68 403.743H533.923L460.665 290.945Z" fill="#89D3DF"/>
</mask>
<g mask="url(#mask0_6326_178)">
<g filter="url(#filter0_d_6326_178)">
<path d="M739.459 429.28L702.83 477.148L762.215 553.301L834.865 403.4L739.459 429.28Z" fill="#258B74"/>
<path d="M396.653 85.1599L323.639 79.4341L415.029 220.518L450.562 154.099L396.653 85.1599Z" fill="#63C1A0"/>
<path d="M762.217 553.302L702.831 477.148L678.371 445.771L632.129 386.566L631.885 386.681L632.129 386.566L496.808 213.418L460.666 290.945L533.924 403.744H533.681L578.463 472.797L637.118 563.379L669.975 520.321L637.118 563.379L762.217 553.302Z" fill="#63C1A0"/>
<path d="M151.691 588.344L30 621.324L142.564 730L190.389 640.563L151.691 588.344Z" fill="#331433"/>
<path d="M396.655 427.679L294.8 445.429L74.0522 484.021L30 621.325L151.691 588.345L229.573 567.274L346.032 535.782L578.462 472.798L533.679 403.745L396.655 427.679Z" fill="#E01A59"/>
<path d="M793.491 358.51L632.129 386.567L678.372 445.772L739.46 429.281L834.866 403.401L793.491 358.51Z" fill="#E01A59"/>
<path d="M551.206 97.299L483.789 92.0312L450.567 154.099L415.034 220.518L294.803 445.428L396.658 427.678L460.668 290.946L496.81 213.418L551.206 97.299Z" fill="#ECB32D"/>
<path d="M229.576 567.272L190.391 640.563L209.618 666.443L190.391 640.563L142.566 730L255.861 728.511L346.034 535.781L229.576 567.272Z" fill="#ECB32D"/>
<path d="M483.786 92.0306L522.241 20L353.82 30.3064L396.656 85.1596L483.786 92.0306Z" fill="#89D3DF"/>
<path d="M353.818 30.3066L323.639 79.434L396.653 85.1598L353.818 30.3066Z" fill="#89D3DF"/>
<path d="M551.204 97.2983L522.242 20L483.787 92.0306L551.204 97.2983Z" fill="#89D3DF"/>
</g>
<path fill-rule="evenodd" clip-rule="evenodd" d="M30 20H835V730H30V20Z" fill="url(#paint1_linear_6326_178)"/>
</g>
<path fill-rule="evenodd" clip-rule="evenodd" d="M230 343H359V398H230V343Z" fill="#00549E"/>
<path d="M245.291 385.885H253.893V377.313H245.291V385.885Z" fill="white"/>
<path d="M271.924 386.5C278.649 386.5 282.491 383.555 285.417 379.555L279.042 374.984C277.164 377.225 275.33 378.72 272.142 378.72C267.863 378.72 264.85 375.115 264.85 370.5V370.412C264.85 365.929 267.863 362.236 272.142 362.236C275.112 362.236 277.077 363.687 278.823 365.841L285.198 360.874C282.535 357.137 278.43 354.5 272.23 354.5C262.973 354.5 256.161 361.533 256.161 370.5V370.588C256.161 379.775 263.191 386.5 271.924 386.5Z" fill="white"/>
<path d="M289.104 385.885H297.575V377.093H301.811C309.365 377.093 314.91 373.269 314.91 365.973V365.885C314.91 359.071 309.933 355.115 302.247 355.115H289.104V385.885ZM297.575 370.412V362.28H301.592C304.605 362.28 306.483 363.643 306.483 366.28V366.368C306.483 368.83 304.605 370.412 301.636 370.412H297.575Z" fill="white"/>
<path d="M318.485 385.885H326.956V377.093H331.191C338.745 377.093 344.291 373.269 344.291 365.973V365.885C344.291 359.071 339.313 355.115 331.628 355.115H318.485V385.885ZM326.956 370.412V362.28H330.973C333.986 362.28 335.864 363.643 335.864 366.28V366.368C335.864 368.83 333.986 370.412 331.017 370.412H326.956Z" fill="white"/>
<defs>
<filter id="filter0_d_6326_178" x="0" y="0" width="864.866" height="770" filterUnits="userSpaceOnUse" color-interpolation-filters="sRGB">
<feFlood flood-opacity="0" result="BackgroundImageFix"/>
<feColorMatrix in="SourceAlpha" type="matrix" values="0 0 0 0 0 0 0 0 0 0 0 0 0 0 0 0 0 0 127 0" result="hardAlpha"/>
<feOffset dy="10"/>
<feGaussianBlur stdDeviation="15"/>
<feColorMatrix type="matrix" values="0 0 0 0 0.0941176 0 0 0 0 0.0941176 0 0 0 0 0.0941176 0 0 0 0.2 0"/>
<feBlend mode="normal" in2="BackgroundImageFix" result="effect1_dropShadow_6326_178"/>
<feBlend mode="normal" in="SourceGraphic" in2="effect1_dropShadow_6326_178" result="shape"/>
</filter>
<linearGradient id="paint0_linear_6326_178" x1="178.072" y1="266.939" x2="360.986" y2="381.009" gradientUnits="userSpaceOnUse">
<stop stop-color="#0080CD" stop-opacity="0.46"/>
<stop offset="1" stop-color="#470A3F" stop-opacity="0.6"/>
</linearGradient>
<linearGradient id="paint1_linear_6326_178" x1="750.321" y1="103.682" x2="-51.4515" y2="504.957" gradientUnits="userSpaceOnUse">
<stop offset="0.145833" stop-color="#240E25" stop-opacity="0.89"/>
<stop offset="1" stop-color="#240E25" stop-opacity="0"/>
</linearGradient>
<clipPath id="clip0_6326_178">
<rect width="102" height="115" fill="white" transform="translate(200 217)"/>
</clipPath>
</defs>
</svg>
