<svg width="446" height="354" viewBox="0 0 446 354" fill="none" xmlns="http://www.w3.org/2000/svg">
<g opacity="0.8" filter="url(#filter0_f_6322_211)">
<path d="M89 232.822H190.879V216.803H202.86V194.876H216.013V211.849L242.811 188.177V264.783H344.69V248.779H356.668V216.803H344.69V141.758L323.955 120.961H242.811V145.732L216.013 121.96V138.744H190.879V109.797L170.144 89H89V232.822Z" fill="url(#paint0_linear_6322_211)"/>
</g>
<g filter="url(#filter1_d_6322_211)">
<path fill-rule="evenodd" clip-rule="evenodd" d="M242.813 264.783H344.692V141.758L323.957 120.961H242.813V264.783Z" fill="#F20036"/>
<path fill-rule="evenodd" clip-rule="evenodd" d="M323.986 141.744L334.312 131.372L344.691 141.744V162.544L323.986 141.744Z" fill="#E10029"/>
<path fill-rule="evenodd" clip-rule="evenodd" d="M344.691 141.762H323.985V120.978L344.691 141.762Z" fill="#A8000A"/>
<path fill-rule="evenodd" clip-rule="evenodd" d="M321.728 173.144L308.826 175.553L297.994 160.763L302.349 150.847L300.063 144.218L286.617 145.095L284.222 149.313L291.516 161.366L281.881 180.595L264.244 183.881L260.706 195.605L269.688 204.918L278.724 204.809L285.91 188.318L304.472 182.95L309.153 190.674L319.169 189.798L324.994 176.978L321.728 173.144ZM290.046 149.751L297.014 150.354L294.347 155.668L290.046 149.751ZM273.553 197.247L270.45 192.811L276.656 191.002L273.553 197.247ZM290.046 179.059L295.163 167.392L301.042 177.033L290.046 179.059ZM312.528 180.595L317.427 179.169L314.488 183.279L312.528 180.595Z" fill="white"/>
<path fill-rule="evenodd" clip-rule="evenodd" d="M276.771 216.803H356.671V248.779H276.771V216.803Z" fill="#A8000A"/>
<path d="M292.064 241.192H287.956V237.211H292.064V241.192ZM303.114 223.777C304.186 223.777 305.143 223.923 305.985 224.212C306.827 224.502 307.542 224.913 308.129 225.444C308.716 225.974 309.166 226.61 309.481 227.347C309.796 228.086 309.953 228.902 309.953 229.798V229.848C309.953 230.86 309.766 231.747 309.392 232.509C309.017 233.272 308.502 233.911 307.848 234.425C307.193 234.938 306.428 235.324 305.552 235.582C304.675 235.84 303.735 235.967 302.731 235.967H299.746V241.192H295.815V223.777H303.114ZM319.829 223.777C321.224 223.777 322.504 223.997 323.67 224.437C324.835 224.877 325.839 225.486 326.681 226.265C327.523 227.045 328.174 227.96 328.633 229.014C329.092 230.067 329.322 231.208 329.322 232.435V232.485C329.322 233.713 329.092 234.857 328.633 235.917C328.174 236.98 327.523 237.9 326.681 238.68C325.839 239.459 324.835 240.073 323.67 240.52C322.504 240.968 321.224 241.192 319.829 241.192H312.862V223.777H319.829ZM346.42 227.235H336.748V230.992H345.271V234.451H336.748V241.192H332.818V223.777H346.42V227.235ZM316.792 237.734H319.829C320.628 237.734 321.36 237.609 322.023 237.361C322.687 237.112 323.253 236.756 323.721 236.291C324.189 235.828 324.555 235.28 324.818 234.65C325.082 234.019 325.214 233.314 325.214 232.535V232.485C325.214 231.723 325.082 231.016 324.818 230.371C324.555 229.724 324.189 229.168 323.721 228.704C323.252 228.239 322.687 227.878 322.023 227.621C321.36 227.364 320.628 227.235 319.829 227.235H316.792V237.734ZM299.746 232.559H302.859C303.846 232.559 304.611 232.306 305.156 231.8C305.7 231.295 305.973 230.669 305.973 229.922V229.873C305.973 229.011 305.687 228.354 305.117 227.907C304.547 227.459 303.769 227.235 302.782 227.235H299.746V232.559Z" fill="white"/>
<path fill-rule="evenodd" clip-rule="evenodd" d="M219.013 121.953V138.737H159.92V194.869H219.013V211.842L269.785 166.992L219.013 121.953Z" fill="#1B0B1C"/>
<path fill-rule="evenodd" clip-rule="evenodd" d="M234 160.524C234 159.791 233.474 158.892 232.831 158.525L221.669 152.162C221.026 151.796 219.974 151.796 219.331 152.162L208.169 158.525C207.526 158.892 207 159.791 207 160.524V173.25C207 173.617 207.131 174.025 207.343 174.387C207.555 174.75 207.847 175.066 208.169 175.25L219.331 181.612C219.662 181.801 220.102 181.893 220.539 181.887C220.632 181.886 220.725 181.88 220.816 181.87C221.129 181.836 221.428 181.75 221.669 181.612L232.831 175.25C233.152 175.066 233.445 174.75 233.656 174.387C233.868 174.025 234 173.617 234 173.25V160.524ZM220.5 175.774C215.537 175.774 211.5 171.787 211.5 166.887C211.5 161.987 215.537 158.001 220.5 158.001C223.702 158.001 226.689 159.703 228.294 162.441L224.399 164.667C223.596 163.296 222.101 162.444 220.5 162.444C218.019 162.444 216 164.437 216 166.887C216 169.337 218.019 171.331 220.5 171.331C222.102 171.331 223.596 170.479 224.399 169.108L228.294 171.333C226.689 174.072 223.702 175.774 220.5 175.774ZM229.5 166.394H228.5V165.406H227.5V166.394H226.5V167.381H227.5V168.368H228.5V167.381H229.5V166.394ZM233.25 166.394H232.25V165.406H231.25V166.394H230.25V167.381H231.25V168.368H232.25V167.381H233.25V166.394Z" fill="white"/>
<path fill-rule="evenodd" clip-rule="evenodd" d="M89 232.822H190.879V109.797L170.144 89.0002H89V232.822Z" fill="#F49400"/>
<path fill-rule="evenodd" clip-rule="evenodd" d="M170.174 109.801L180.499 99.427L190.879 109.801V130.6L170.174 109.801Z" fill="#F08400"/>
<path fill-rule="evenodd" clip-rule="evenodd" d="M190.878 109.818H170.173V89.0354L190.878 109.818Z" fill="#D23F00"/>
<path fill-rule="evenodd" clip-rule="evenodd" d="M105.982 184.828H202.86V216.804H105.982V184.828Z" fill="#D24000"/>
<path fill-rule="evenodd" clip-rule="evenodd" d="M162.132 129.773H140.942H128.558L129.359 138.806H140.942H161.331L158.924 165.886L140.942 170.894L140.927 170.9L122.954 165.886L121.698 151.722H130.504L131.16 159.072L140.932 161.723L140.942 161.718L150.724 159.067L151.744 147.628H140.942H121.338L118.966 120.961H140.942H162.912L162.132 129.773Z" fill="#FEFEFE"/>
<path d="M119.003 209.866H114.983V205.758H119.003V209.866ZM127.128 199.003H134.22V191.889H138.064V209.866H134.22V202.651H127.128V209.866H123.283V191.889H127.128V199.003ZM155.418 195.535H150.1V209.866H146.255V195.535H140.937V191.889H155.418V195.535ZM167.017 199.49L171.61 191.889H175.756V209.866H171.961V198.13L167.041 205.809H166.941L162.072 198.207V209.866H158.277V191.889H162.422L167.017 199.49ZM184.16 206.297H192.875V209.866H180.315V191.889H184.16V206.297Z" fill="white"/>
</g>
<defs>
<filter id="filter0_f_6322_211" x="0" y="0" width="445.668" height="353.783" filterUnits="userSpaceOnUse" color-interpolation-filters="sRGB">
<feFlood flood-opacity="0" result="BackgroundImageFix"/>
<feBlend mode="normal" in="SourceGraphic" in2="BackgroundImageFix" result="shape"/>
<feGaussianBlur stdDeviation="44.5" result="effect1_foregroundBlur_6322_211"/>
</filter>
<filter id="filter1_d_6322_211" x="69" y="74.0002" width="307.671" height="215.783" filterUnits="userSpaceOnUse" color-interpolation-filters="sRGB">
<feFlood flood-opacity="0" result="BackgroundImageFix"/>
<feColorMatrix in="SourceAlpha" type="matrix" values="0 0 0 0 0 0 0 0 0 0 0 0 0 0 0 0 0 0 127 0" result="hardAlpha"/>
<feOffset dy="5"/>
<feGaussianBlur stdDeviation="10"/>
<feColorMatrix type="matrix" values="0 0 0 0 0 0 0 0 0 0 0 0 0 0 0 0 0 0 0.15 0"/>
<feBlend mode="normal" in2="BackgroundImageFix" result="effect1_dropShadow_6322_211"/>
<feBlend mode="normal" in="SourceGraphic" in2="effect1_dropShadow_6322_211" result="shape"/>
</filter>
<linearGradient id="paint0_linear_6322_211" x1="47.8588" y1="103.086" x2="255.471" y2="304.213" gradientUnits="userSpaceOnUse">
<stop stop-color="#E01A59"/>
<stop offset="1" stop-color="#460A48"/>
</linearGradient>
</defs>
</svg>
